<svg width="19" height="19" viewBox="0 0 19 19" fill="none" xmlns="http://www.w3.org/2000/svg">
<circle cx="9.54659" cy="9.61177" r="8.68966" fill="#105DFB"/>
<path fill-rule="evenodd" clip-rule="evenodd" d="M3.88281 13.3106V5.72827H7.38802C8.51389 5.72827 9.4266 6.64097 9.4266 7.76685C9.4266 8.48229 9.2066 8.92547 8.39997 9.38012C9.36523 9.81993 9.6333 10.4295 9.6333 11.2797C9.6333 12.4299 8.61152 13.3106 7.46133 13.3106H3.88281ZM5.36606 6.9834V8.80668H7.10205C7.10205 8.80668 7.9458 8.80668 7.9458 7.89504C7.9458 6.9834 7.10205 6.9834 7.10205 6.9834H5.36606ZM5.36606 12.0265V10.0578H7.22813C7.52878 10.0578 8.15917 10.2129 8.15917 11.144C8.15917 11.8345 7.53848 12.02 7.22813 12.0265H5.36606Z" fill="white"/>
<path fill-rule="evenodd" clip-rule="evenodd" d="M12.8046 7.81745C11.7378 7.81745 10.157 8.58362 10.157 10.6203C10.157 11.8604 10.8359 13.4522 12.8725 13.4522C14.5018 13.4522 15.2518 12.256 15.4232 11.658H13.8908C13.8133 11.9295 13.5126 12.2302 12.8725 12.2302C11.9415 12.2302 11.6118 11.4349 11.5633 11.0373H15.4232V10.6203C15.4232 8.58362 13.8715 7.81745 12.8046 7.81745ZM12.8046 8.98125C11.9357 8.98125 11.615 9.69892 11.5633 10.0578H13.8908C13.8908 9.69892 13.6736 8.98125 12.8046 8.98125Z" fill="white"/>
<path d="M10.9523 6.15905V7.09978H14.6085V6.15905H10.9523Z" fill="white"/>
</svg>
