<svg width="19" height="19" viewBox="0 0 19 19" fill="none" xmlns="http://www.w3.org/2000/svg">
<rect x="0.5" y="0.611816" width="18" height="18" rx="9" fill="#101010"/>
<g clip-path="url(#clip0_216_1189)">
<path d="M7.83344 14.6119C8.75345 14.6119 9.50013 13.8652 9.50013 12.9452V11.2786H7.83344C6.91343 11.2786 6.16675 12.0252 6.16675 12.9452C6.16675 13.8652 6.91343 14.6119 7.83344 14.6119Z" fill="#0ACF83"/>
<path d="M6.16675 9.61175C6.16675 8.69175 6.91343 7.94507 7.83344 7.94507H9.50013V11.2784H7.83344C6.91343 11.2784 6.16675 10.5317 6.16675 9.61175Z" fill="#A259FF"/>
<path d="M6.16675 6.2785C6.16675 5.3585 6.91343 4.61182 7.83344 4.61182H9.50013V7.94514H7.83344C6.91343 7.94514 6.16675 7.1985 6.16675 6.2785Z" fill="#F24E1E"/>
<path d="M9.5 4.61182H11.1667C12.0867 4.61182 12.8334 5.3585 12.8334 6.2785C12.8334 7.1985 12.0867 7.94514 11.1667 7.94514H9.5V4.61182Z" fill="#FF7262"/>
<path d="M12.8334 9.61175C12.8334 10.5317 12.0867 11.2784 11.1667 11.2784C10.2467 11.2784 9.5 10.5317 9.5 9.61175C9.5 8.69175 10.2467 7.94507 11.1667 7.94507C12.0867 7.94507 12.8334 8.69175 12.8334 9.61175Z" fill="#1ABCFE"/>
</g>
<defs>
<clipPath id="clip0_216_1189">
<rect width="10" height="10" fill="white" transform="translate(4.5 4.61182)"/>
</clipPath>
</defs>
</svg>
