<svg width="19" height="19" viewBox="0 0 19 19" fill="none" xmlns="http://www.w3.org/2000/svg">
<path d="M9.5 0.611816C4.5275 0.611816 0.5 4.74119 0.5 9.83946C0.5 13.9227 3.07625 17.3715 6.65375 18.5942C7.10375 18.6749 7.2725 18.3981 7.2725 18.1559C7.2725 17.9367 7.26125 17.21 7.26125 16.4372C5 16.864 4.415 15.872 4.235 15.353C4.13375 15.0877 3.695 14.2687 3.3125 14.0496C2.9975 13.8766 2.5475 13.4498 3.30125 13.4382C4.01 13.4267 4.51625 14.1072 4.685 14.3841C5.495 15.7798 6.78875 15.3876 7.30625 15.1454C7.385 14.5456 7.62125 14.1418 7.88 13.9112C5.8775 13.6805 3.785 12.8846 3.785 9.35501C3.785 8.3515 4.13375 7.52101 4.7075 6.87508C4.6175 6.64439 4.3025 5.69855 4.7975 4.42975C4.7975 4.42975 5.55125 4.18753 7.2725 5.37559C7.9925 5.16797 8.7575 5.06415 9.5225 5.06415C10.2875 5.06415 11.0525 5.16797 11.7725 5.37559C13.4937 4.17599 14.2475 4.42975 14.2475 4.42975C14.7425 5.69855 14.4275 6.64439 14.3375 6.87508C14.9112 7.52101 15.26 8.33997 15.26 9.35501C15.26 12.8961 13.1562 13.6805 11.1537 13.9112C11.48 14.1995 11.7612 14.7532 11.7612 15.6183C11.7612 16.8525 11.75 17.8444 11.75 18.1559C11.75 18.3981 11.9187 18.6865 12.3687 18.5942C14.1554 17.9758 15.7079 16.7985 16.8078 15.228C17.9077 13.6575 18.4995 11.7729 18.5 9.83946C18.5 4.74119 14.4725 0.611816 9.5 0.611816Z" fill="black"/>
</svg>
