<svg width="19" height="19" viewBox="0 0 19 19" fill="none" xmlns="http://www.w3.org/2000/svg">
<rect x="0.5" y="0.611816" width="18" height="18" rx="9" fill="#E1E7FE"/>
<path d="M8.11235 9.48748C8.43651 10.1502 8.9737 10.6849 9.63788 11.0061C9.68647 11.0291 9.74022 11.0391 9.79385 11.035C9.84747 11.031 9.89911 11.013 9.94369 10.9829L10.9216 10.3308C10.9649 10.302 11.0147 10.2844 11.0664 10.2796C11.1182 10.2749 11.1703 10.2831 11.2181 10.3036L13.0477 11.0877C13.1098 11.1141 13.1617 11.16 13.1955 11.2184C13.2293 11.2769 13.2432 11.3447 13.2351 11.4118C13.1773 11.8643 12.9565 12.2802 12.6141 12.5816C12.2717 12.8831 11.8312 13.0494 11.375 13.0494C9.96604 13.0494 8.61478 12.4897 7.6185 11.4934C6.62221 10.4971 6.0625 9.14585 6.0625 7.73689C6.06252 7.2807 6.22883 6.84017 6.53027 6.49777C6.83171 6.15538 7.24762 5.9346 7.70012 5.87677C7.76715 5.86866 7.83501 5.88255 7.89347 5.91635C7.95192 5.95016 7.9978 6.00205 8.02421 6.0642L8.80899 7.89537C8.82929 7.94273 8.83756 7.99438 8.83307 8.04571C8.82858 8.09705 8.81146 8.14648 8.78324 8.18959L8.13338 9.18255C8.1038 9.22722 8.08632 9.2788 8.08263 9.33224C8.07895 9.38569 8.08919 9.43918 8.11235 9.48748V9.48748Z" stroke="#516CF7" stroke-width="0.625" stroke-linecap="round" stroke-linejoin="round"/>
</svg>
