<svg width="19" height="19" viewBox="0 0 19 19" fill="none" xmlns="http://www.w3.org/2000/svg">
<rect x="0.5" y="0.611816" width="18" height="18" rx="9" fill="#1DA1F2"/>
<g clip-path="url(#clip0_216_1207)">
<path d="M7.6459 13.6744C11.4186 13.6744 13.4826 10.548 13.4826 7.83765C13.4826 7.74976 13.4807 7.65992 13.4768 7.57203C13.8783 7.28165 14.2248 6.92198 14.5 6.50992C14.1261 6.67629 13.729 6.78495 13.3225 6.83218C13.7505 6.57559 14.0711 6.17249 14.2246 5.69761C13.8219 5.93628 13.3815 6.10463 12.9223 6.19547C12.6128 5.86669 12.2037 5.64901 11.7582 5.57607C11.3127 5.50312 10.8555 5.57898 10.4574 5.79192C10.0593 6.00485 9.74242 6.343 9.55577 6.75409C9.36912 7.16518 9.3231 7.6263 9.4248 8.06617C8.60937 8.02525 7.81164 7.81342 7.08333 7.44442C6.35501 7.07542 5.71237 6.55748 5.19707 5.92418C4.93517 6.37573 4.85502 6.91006 4.97293 7.41858C5.09084 7.9271 5.39794 8.37165 5.83184 8.66187C5.5061 8.65153 5.18749 8.56383 4.90234 8.40601V8.4314C4.90205 8.90527 5.06587 9.36462 5.36596 9.73136C5.66605 10.0981 6.08388 10.3496 6.54844 10.4431C6.24669 10.5257 5.92999 10.5377 5.62285 10.4783C5.75394 10.8858 6.00899 11.2422 6.3524 11.4978C6.69582 11.7535 7.11047 11.8955 7.53848 11.9041C6.81184 12.4748 5.91424 12.7844 4.99023 12.783C4.82637 12.7827 4.66267 12.7727 4.5 12.7529C5.43869 13.3551 6.53064 13.675 7.6459 13.6744Z" fill="white"/>
</g>
<defs>
<clipPath id="clip0_216_1207">
<rect width="10" height="10" fill="white" transform="translate(4.5 4.61182)"/>
</clipPath>
</defs>
</svg>
