<svg width="19" height="19" viewBox="0 0 19 19" fill="none" xmlns="http://www.w3.org/2000/svg">
<rect x="0.5" y="0.611816" width="18" height="18" rx="9" fill="#EA4C89"/>
<path fill-rule="evenodd" clip-rule="evenodd" d="M9.5 4.61182C6.7397 4.61182 4.5 6.85151 4.5 9.61182C4.5 12.3721 6.7397 14.6118 9.5 14.6118C12.2549 14.6118 14.5 12.3721 14.5 9.61182C14.5 6.85151 12.2549 4.61182 9.5 4.61182ZM12.8026 6.91659C13.3991 7.64327 13.7571 8.5706 13.7679 9.57385C13.6269 9.54675 12.2169 9.25932 10.7961 9.43829C10.7636 9.36779 10.7364 9.29185 10.7039 9.21594C10.6171 9.00988 10.5195 8.79838 10.4219 8.59772C11.9946 7.95782 12.7104 7.03589 12.8026 6.91659ZM9.5 5.34934C10.5846 5.34934 11.577 5.75607 12.3308 6.4231C12.2549 6.53156 11.6095 7.39381 10.0911 7.96322C9.39153 6.67798 8.61606 5.62592 8.49675 5.46323C8.81669 5.3873 9.15294 5.34934 9.5 5.34934ZM7.68331 5.75064C7.79719 5.90249 8.55641 6.95997 9.26681 8.2181C7.27115 8.74957 5.50868 8.73872 5.31887 8.73872C5.59544 7.4155 6.49024 6.31464 7.68331 5.75064ZM5.22668 9.61725C5.22668 9.57385 5.22668 9.53047 5.22668 9.4871C5.41106 9.4925 7.48265 9.51963 9.61388 8.87972C9.73863 9.11832 9.8525 9.36235 9.96097 9.60638C9.90672 9.62266 9.84706 9.63894 9.79284 9.65519C7.59111 10.3656 6.41974 12.307 6.32212 12.4697C5.64425 11.7159 5.22668 10.7127 5.22668 9.61725ZM9.5 13.8851C8.513 13.8851 7.60195 13.5489 6.88069 12.9849C6.95662 12.8277 7.82428 11.1574 10.2321 10.3168C10.2429 10.3114 10.2484 10.3114 10.2592 10.306C10.8612 11.8623 11.1052 13.1693 11.1703 13.5435C10.6551 13.7658 10.0911 13.8851 9.5 13.8851ZM11.8807 13.153C11.8373 12.8927 11.6095 11.6454 11.051 10.1107C12.3905 9.89922 13.5618 10.2463 13.7083 10.2951C13.5239 11.4828 12.8406 12.5077 11.8807 13.153Z" fill="white"/>
</svg>
