<svg width="11" height="11" viewBox="0 0 11 11" fill="none" xmlns="http://www.w3.org/2000/svg">
<path d="M3.62354 5.61157H7.37354" stroke="#516CF7" stroke-width="0.625" stroke-linecap="round" stroke-linejoin="round"/>
<path d="M4.56079 7.48657H2.99829C2.50101 7.48657 2.0241 7.28903 1.67247 6.9374C1.32084 6.58577 1.12329 6.10885 1.12329 5.61157C1.12329 5.11429 1.32084 4.63738 1.67247 4.28575C2.0241 3.93412 2.50101 3.73657 2.99829 3.73657H4.56079" stroke="#516CF7" stroke-width="0.625" stroke-linecap="round" stroke-linejoin="round"/>
<path d="M6.43604 7.48657H7.99854C8.49582 7.48657 8.97273 7.28903 9.32436 6.9374C9.67599 6.58577 9.87354 6.10885 9.87354 5.61157C9.87354 5.11429 9.67599 4.63738 9.32436 4.28575C8.97273 3.93412 8.49582 3.73657 7.99854 3.73657H6.43604" stroke="#516CF7" stroke-width="0.625" stroke-linecap="round" stroke-linejoin="round"/>
</svg>
