<svg width="19" height="19" viewBox="0 0 19 19" fill="none" xmlns="http://www.w3.org/2000/svg">
<rect x="0.5" y="0.611816" width="18" height="18" rx="9" fill="#0A66C2"/>
<g clip-path="url(#clip0_244_1187)">
<path d="M13.7598 4.61182H5.23828C4.83008 4.61182 4.5 4.93408 4.5 5.33252V13.8892C4.5 14.2876 4.83008 14.6118 5.23828 14.6118H13.7598C14.168 14.6118 14.5 14.2876 14.5 13.8911V5.33252C14.5 4.93408 14.168 4.61182 13.7598 4.61182ZM7.4668 13.1333H5.98242V8.35986H7.4668V13.1333ZM6.72461 7.70947C6.24805 7.70947 5.86328 7.32471 5.86328 6.8501C5.86328 6.37549 6.24805 5.99072 6.72461 5.99072C7.19922 5.99072 7.58398 6.37549 7.58398 6.8501C7.58398 7.32275 7.19922 7.70947 6.72461 7.70947ZM13.0215 13.1333H11.5391V10.813C11.5391 10.2603 11.5293 9.54736 10.7676 9.54736C9.99609 9.54736 9.87891 10.1509 9.87891 10.7739V13.1333H8.39844V8.35986H9.82031V9.01221H9.83984C10.0371 8.63721 10.5215 8.24072 11.2422 8.24072C12.7441 8.24072 13.0215 9.229 13.0215 10.5142V13.1333Z" fill="white"/>
</g>
<defs>
<clipPath id="clip0_244_1187">
<rect width="10" height="10" fill="white" transform="translate(4.5 4.61182)"/>
</clipPath>
</defs>
</svg>
