<svg width="19" height="19" viewBox="0 0 19 19" fill="none" xmlns="http://www.w3.org/2000/svg">
<rect x="0.5" y="0.611816" width="18" height="18" rx="9" fill="#E1E7FE"/>
<path opacity="0.2" d="M9.78589 13.0505C9.67347 13.146 9.57617 13.2243 9.5 13.2837C9.42382 13.2243 9.32653 13.146 9.21411 13.0505C8.92984 12.8088 8.55118 12.4585 8.17331 12.0239C7.40995 11.1461 6.6875 9.96805 6.6875 8.67432C6.6875 7.9284 6.98382 7.21303 7.51126 6.68558C8.03871 6.15813 8.75408 5.86182 9.5 5.86182C10.2459 5.86182 10.9613 6.15813 11.4887 6.68558C12.0162 7.21303 12.3125 7.9284 12.3125 8.67432C12.3125 9.96805 11.59 11.1461 10.8267 12.0239C10.4488 12.4585 10.0702 12.8088 9.78589 13.0505ZM8.63192 9.97349C8.88887 10.1452 9.19097 10.2368 9.5 10.2368C9.9144 10.2368 10.3118 10.0722 10.6049 9.77917C10.8979 9.48614 11.0625 9.08872 11.0625 8.67432C11.0625 8.36528 10.9709 8.06319 10.7992 7.80624C10.6275 7.54929 10.3835 7.34902 10.0979 7.23075C9.81243 7.11249 9.49827 7.08155 9.19517 7.14184C8.89208 7.20213 8.61367 7.35094 8.39515 7.56946C8.17663 7.78798 8.02781 8.06639 7.96752 8.36949C7.90723 8.67258 7.93818 8.98675 8.05644 9.27226C8.1747 9.55777 8.37497 9.8018 8.63192 9.97349Z" stroke="#516CF7" stroke-width="0.625"/>
<path d="M9.5 9.92432C10.1904 9.92432 10.75 9.36467 10.75 8.67432C10.75 7.98396 10.1904 7.42432 9.5 7.42432C8.80964 7.42432 8.25 7.98396 8.25 8.67432C8.25 9.36467 8.80964 9.92432 9.5 9.92432Z" stroke="#516CF7" stroke-width="0.625" stroke-linecap="round" stroke-linejoin="round"/>
<path d="M12.625 8.67432C12.625 11.4868 9.5 13.6743 9.5 13.6743C9.5 13.6743 6.375 11.4868 6.375 8.67432C6.375 7.84551 6.70424 7.05066 7.29029 6.46461C7.87634 5.87856 8.6712 5.54932 9.5 5.54932C10.3288 5.54932 11.1237 5.87856 11.7097 6.46461C12.2958 7.05066 12.625 7.84551 12.625 8.67432V8.67432Z" stroke="#516CF7" stroke-width="0.625" stroke-linecap="round" stroke-linejoin="round"/>
</svg>
