<svg width="19" height="19" viewBox="0 0 19 19" fill="none" xmlns="http://www.w3.org/2000/svg">
<rect x="0.5" y="0.611816" width="18" height="18" rx="9" fill="#E1E7FE"/>
<path d="M7.62354 9.61157H11.3735" stroke="#516CF7" stroke-width="0.625" stroke-linecap="round" stroke-linejoin="round"/>
<path d="M8.56079 11.4866H6.99829C6.50101 11.4866 6.0241 11.289 5.67247 10.9374C5.32084 10.5858 5.12329 10.1089 5.12329 9.61157C5.12329 9.11429 5.32084 8.63738 5.67247 8.28575C6.0241 7.93412 6.50101 7.73657 6.99829 7.73657H8.56079" stroke="#516CF7" stroke-width="0.625" stroke-linecap="round" stroke-linejoin="round"/>
<path d="M10.436 11.4866H11.9985C12.4958 11.4866 12.9727 11.289 13.3244 10.9374C13.676 10.5858 13.8735 10.1089 13.8735 9.61157C13.8735 9.11429 13.676 8.63738 13.3244 8.28575C12.9727 7.93412 12.4958 7.73657 11.9985 7.73657H10.436" stroke="#516CF7" stroke-width="0.625" stroke-linecap="round" stroke-linejoin="round"/>
</svg>
